# xmcd CD database file generated by Grip 3.2.0
# 
# Track frame offsets:
#       150
#       14717
#       28284
#       42041
#       55755
#       69909
#       80328
#       90462
#       102535
#       116049
#       129118
#       143213
#       156586
#       168594
#       180899
#       193437
#       221979
#       235036
# 
# Disc length: 3300 seconds
# 
# Revision: 1
# Processed by: cddbd v1.5.1PL2 Copyright (c) Steve Scherf et al.
# Submitted via: Grip 3.2.0
# 
DISCID=fe0ce212
DTITLE=Various Artist - The greatest Era in Jazz from Swing to Bebop CD5
DYEAR=1900
DGENRE=Jazz
TTITLE0=Sidney Bechet - I Ain't Gonna Give Nobody None Of My Jelly Roll
TTITLE1=Red Nichols - Corinne Corinna
TTITLE2=Oscar Peterson - Hungarian Dance
TTITLE3=Joe Williams and Count Basie - Always On The Blue Side
TTITLE4=Muggsy Spanier - Alice Blue Gown
TTITLE5=Buster Bailey - Corrine Corrini (Where've You Been So Long)
TTITLE6=Frank Sinatra - As Time Goes By
TTITLE7=Perry Como - Don't Let The Stars Get In Your Eyes
TTITLE8=Gene Krupa - Ball Of Fire
TTITLE9=Ella Fitzgerald - A Four Leaf Clover In Your Pocket
TTITLE10=Doris Day - (Oh Yes) There's Good Blues Tonight
TTITLE11=Andrews Sisters - Don't Sit Under The Apple Tree
TTITLE12=Andrews Sisters - I Can Dream, Can't I
TTITLE13=Charlie Parker - Carvin' The Bird
TTITLE14=Nat King Cole - After You Get What You Want, You Dont Want It
TTITLE15=Lionel Hampton - How High The Moon
TTITLE16=Errol Garner - Frankie And Johnny Fantasy
TTITLE17=Henry 'Red' Allen - Down In Jungle Town
EXTD=
EXTT0=
EXTT1=
EXTT2=
EXTT3=
EXTT4=
EXTT5=
EXTT6=
EXTT7=
EXTT8=
EXTT9=
EXTT10=
EXTT11=
EXTT12=
EXTT13=
EXTT14=
EXTT15=
EXTT16=
EXTT17=
PLAYORDER=
